<?xml version="1.0" encoding="utf-8"?>
<!-- Generator: Adobe Illustrator 18.1.0, SVG Export Plug-In . SVG Version: 6.00 Build 0)  -->
<svg version="1.1" id="Layer_1" xmlns="http://www.w3.org/2000/svg" xmlns:xlink="http://www.w3.org/1999/xlink" x="0px" y="0px"
	 width="180px" height="40px" viewBox="0 0 180 40" enable-background="new 0 0 180 40" xml:space="preserve">
<g>
	<g>
		<path fill="#FFFFFF" d="M17.1,10.4c0,2-1.6,3.6-3.6,3.6s-3.6-1.6-3.6-3.6s1.6-3.6,3.6-3.6C15.5,7,17.1,8.6,17.1,10.4"/>
		<path fill="#FFFFFF" d="M8.3,25.1c0,2-1.6,3.6-3.6,3.6s-3.6-1.6-3.6-3.6s1.6-3.6,3.6-3.6S8.3,23.2,8.3,25.1"/>
		<path fill="#FFFFFF" d="M25.7,25.1c0,2-1.6,3.6-3.6,3.6s-3.6-1.6-3.6-3.6s1.6-3.6,3.6-3.6S25.7,23.2,25.7,25.1"/>
		<path fill="#FFFFFF" d="M38.5,22.3h-2v6.1h-3V12.1h6c3.7,0,5.5,2.4,5.5,5.1c0,2-1,4-3.4,4.7l4.1,6.4h-3.6L38.5,22.3z M36.5,19.5
			h2.7c2,0,2.7-1.2,2.7-2.4c0-1.2-0.8-2.3-2.4-2.3h-3.1v4.7H36.5z"/>
		<polygon fill="#FFFFFF" points="52.7,12.1 63.5,12.1 63.5,14.9 55.6,14.9 55.6,18.7 62.9,18.7 62.9,21.5 55.6,21.5 55.6,25.6 
			63.5,25.6 63.5,28.3 52.7,28.3 		"/>
		<path fill="#FFFFFF" d="M79.5,24.7h-5.8l-1.3,3.7h-3.2l6.4-16.3h2.3L84,28.3h-3.2L79.5,24.7z M74.6,21.9h4l-2-5.6L74.6,21.9z"/>
		<polygon fill="#FFFFFF" points="90.3,12.1 93.4,12.1 93.4,25.4 101.7,25.4 101.7,28.3 90.3,28.3 		"/>
		<path fill="#FFFFFF" d="M119.6,17.3c0,2.7-1.7,5.2-5.8,5.2h-2.6v5.7h-3V12h5.9C118,12,119.6,14.7,119.6,17.3 M116.6,17.3
			c0-1.3-0.9-2.5-2.5-2.5h-3v5h2.7C115.8,19.8,116.6,18.5,116.6,17.3"/>
		<path fill="#FFFFFF" d="M133.2,24.7h-5.8l-1.3,3.7h-3.2l6.4-16.3h2.3l6.2,16.3h-3.2L133.2,24.7z M128.3,21.9h4l-2-5.6L128.3,21.9z
			"/>
		<path fill="#FFFFFF" d="M141.4,20.1c0-4.9,3.8-8.4,8.6-8.4c2.7,0,5.2,1.2,6.6,2.7l-2,2.1c-1.2-1.2-2.8-1.9-4.7-1.9
			c-3.1,0-5.5,2.3-5.5,5.5c0,3.1,2.3,5.5,5.5,5.5c1.8,0,3.5-0.8,4.5-1.9v-2.5h-4.7v-2.6h7.5v6.6c-2,2.1-4.7,3.3-7.4,3.3
			C144.9,28.5,141.4,25,141.4,20.1"/>
		<polygon fill="#FFFFFF" points="163.6,12 174.4,12 174.4,14.8 166.7,14.8 166.7,18.6 173.9,18.6 173.9,21.5 166.7,21.5 
			166.7,25.4 174.4,25.4 174.4,28.3 163.6,28.3 		"/>
		<path fill="#FFFFFF" d="M177.2,12.1c0.7,0,1.3,0.5,1.3,1.3c0,0.7-0.6,1.3-1.3,1.3s-1.3-0.6-1.3-1.3
			C175.9,12.7,176.5,12.1,177.2,12.1L177.2,12.1z M177.2,12.4c-0.5,0-1,0.5-1,1c0,0.6,0.4,1,1,1c0.5,0,1-0.4,1-1
			C178.2,12.8,177.8,12.4,177.2,12.4L177.2,12.4z M176.9,14h-0.3v-1.3c0.1,0,0.3,0,0.5,0s0.3,0,0.4,0.1c0.1,0.1,0.1,0.1,0.1,0.3
			s-0.1,0.3-0.3,0.3l0,0c0.1,0,0.2,0.1,0.2,0.3c0,0.2,0.1,0.3,0.1,0.3h-0.3c0,0-0.1-0.2-0.1-0.3c0-0.1-0.1-0.2-0.3-0.2h-0.1
			L176.9,14L176.9,14L176.9,14z M176.9,13.3L176.9,13.3c0.3,0,0.4-0.1,0.4-0.2c0-0.1-0.1-0.2-0.3-0.2c-0.1,0-0.1,0-0.2,0L176.9,13.3
			L176.9,13.3z"/>
		<path fill="#FFFFFF" d="M124.5,33.3c-0.8,0-1.4,0.6-1.4,1.5c0,0.8,0.6,1.4,1.4,1.4c0.8,0,1.4-0.6,1.4-1.4
			C126,33.9,125.3,33.3,124.5,33.3 M124.5,36.7c-1.2,0-2-0.9-2-2c0-1.2,0.9-2.1,2.1-2.1c1.1,0,2.1,0.9,2.1,2.1
			C126.7,35.9,125.8,36.7,124.5,36.7"/>
		<path fill="#FFFFFF" d="M130.4,36.7c-0.8,0-1.5-0.5-1.5-1.4v-2.6h0.6v2.5c0,0.6,0.3,0.9,0.9,0.9c0.5,0,0.9-0.3,0.9-0.9v-2.5h0.6
			v2.6C131.9,36.3,131.2,36.7,130.4,36.7"/>
		<polygon fill="#FFFFFF" points="135.9,36.7 135.2,36.7 135.2,33.4 134.1,33.4 134.1,32.7 137,32.7 137,33.4 135.9,33.4 		"/>
		<path fill="#FFFFFF" d="M139.8,33.4v1.4h0.7c0.5,0,0.7-0.4,0.7-0.7c0-0.3-0.2-0.7-0.7-0.7H139.8 M139.8,36.7h-0.6v-4h1.4
			c0.9,0,1.3,0.6,1.3,1.3c0,0.6-0.4,1.2-1.4,1.2h-0.7V36.7"/>
		<polygon fill="#FFFFFF" points="146.7,36.7 144.2,36.7 144.2,32.7 146.7,32.7 146.7,33.4 144.8,33.4 144.8,34.4 146.6,34.4 
			146.6,35 144.8,35 144.8,36.1 146.7,36.1 		"/>
		<path fill="#FFFFFF" d="M149.7,33.4v1.3h0.7c0.5,0,0.7-0.3,0.7-0.6c0-0.3-0.2-0.6-0.6-0.6L149.7,33.4 M152,36.7h-0.7l-1-1.6h-0.5
			v1.6h-0.6v-4h1.4c0.9,0,1.3,0.6,1.3,1.2c0,0.5-0.3,1-0.9,1.1L152,36.7"/>
		<polygon fill="#FFFFFF" points="154.9,36.7 154.2,36.7 154.2,32.7 156.7,32.7 156.7,33.4 154.9,33.4 154.9,34.4 156.5,34.4 
			156.5,35.1 154.9,35.1 		"/>
		<path fill="#FFFFFF" d="M160.8,33.3c-0.8,0-1.4,0.6-1.4,1.5c0,0.8,0.6,1.4,1.4,1.4c0.8,0,1.4-0.6,1.4-1.4
			C162.3,33.9,161.6,33.3,160.8,33.3 M160.8,36.7c-1.2,0-2-0.9-2-2c0-1.2,0.9-2.1,2.1-2.1c1.1,0,2.1,0.9,2.1,2.1
			C162.8,35.9,161.9,36.7,160.8,36.7"/>
		<path fill="#FFFFFF" d="M165.9,33.4v1.3h0.7c0.5,0,0.7-0.3,0.7-0.6c0-0.3-0.2-0.6-0.6-0.6L165.9,33.4 M168.1,36.7h-0.7l-1-1.6
			h-0.5v1.6h-0.6v-4h1.4c0.9,0,1.3,0.6,1.3,1.2c0,0.5-0.3,1-0.9,1.1L168.1,36.7"/>
		<polygon fill="#FFFFFF" points="174.4,36.7 173.8,36.7 173.8,34.2 172.5,36 172.3,36 171,34.2 171,36.7 170.4,36.7 170.4,32.7 
			170.7,32.7 172.4,35.1 174,32.7 174.4,32.7 		"/>
	</g>
</g>
</svg>
